<svg width="968" height="243" viewBox="0 0 968 243" fill="none" xmlns="http://www.w3.org/2000/svg">
<path fill-rule="evenodd" clip-rule="evenodd" d="M23 41.2451C39.5755 42.3783 61.0251 47.5171 78.749 59.5763C94.9631 70.6082 108.327 87.5651 112 113.562C111.969 138.934 92.5653 159 68 159C43.2178 159 23 138.7 23 113.5V41.2451ZM129 129.02C129.203 88.4425 111.063 62.2101 87.7495 46.3479C64.8551 30.7707 37.3565 25.3928 18.1167 25.0173C11.804 24.8941 7 30.0378 7 35.9721V113.5V129C7 129.348 7.02221 129.691 7.0653 130.027C10.8018 165.73 29.1635 188.169 51.4913 201.473C73.4986 214.586 99.0739 218.71 117.916 218.985C124.174 219.077 129 213.983 129 208.02V129.02ZM113 154.398C102.138 167.006 86.2064 175 68 175C56.2699 175 45.3269 171.667 36.0401 165.896C42.4575 175.273 50.6758 182.362 59.6814 187.728C76.6649 197.848 96.6781 201.927 113 202.81V154.398Z" fill="#EBEBEB"/>
<path fill-rule="evenodd" clip-rule="evenodd" d="M23.0567 200.452C23.8682 199.266 25.5329 199.411 26.554 200.421C29.5431 203.378 32.6759 206.125 35.924 208.672C36.641 209.234 37.0746 210.082 37.1315 210.992C37.2928 213.57 37.6539 216.682 38.0349 219.966C38.0762 220.322 38.1177 220.68 38.1592 221.04C38.554 224.457 38.9867 228.294 38.9997 231.088C39.0032 231.828 38.9799 232.66 38.8862 233.494C38.8052 234.214 38.6167 235.494 38.0191 236.837C37.4712 238.067 35.7344 241.123 31.7477 241.86C28.1124 242.532 25.515 240.673 24.6875 240.017L24.5314 239.893L24.3817 239.762C14.4031 231.008 -2.47455 205.585 0.304569 168.404C0.496306 165.839 3.57956 166.214 4.62012 168.567C7.90716 175.998 11.8753 182.701 16.3772 188.733C16.7652 189.253 17.0217 189.859 17.1268 190.499C17.9547 195.54 19.1867 200.134 20.6446 204.254C20.784 204.648 21.3861 204.586 21.4784 204.178C21.6755 203.307 22.0851 201.87 23.0567 200.452Z" fill="#EBEBEB"/>
<path fill-rule="evenodd" clip-rule="evenodd" d="M109.943 42.5485C110.915 41.1297 111.325 39.6928 111.522 38.8221C111.614 38.4145 112.216 38.3519 112.355 38.7459C113.831 42.9157 115.075 47.5704 115.903 52.6829C116.015 53.3763 116.303 54.0299 116.74 54.5795C121.534 60.6007 125.789 67.2818 129.345 74.6713C130.196 76.4386 132.549 76.5521 132.695 74.5963C135.475 37.4154 118.597 11.9921 108.618 3.23796L108.469 3.10662L108.313 2.98289C107.485 2.32688 104.888 0.468495 101.252 1.14018C97.2657 1.8768 95.5288 4.93276 94.9809 6.16346C94.3833 7.50575 94.1948 8.78643 94.1138 9.50638C94.0201 10.34 93.9969 11.172 94.0003 11.9119C94.0133 14.7058 94.446 18.5429 94.8408 21.9604C94.8823 22.32 94.9239 22.6781 94.9652 23.0342L94.9652 23.0342C95.3461 26.3179 95.7072 29.4305 95.8685 32.0085C95.9678 33.596 96.7074 35.0982 97.9621 36.0759C100.585 38.1197 103.138 40.2854 105.605 42.5775C106.9 43.781 108.944 44.0075 109.943 42.5485Z" fill="#EBEBEB"/>
<path d="M285.246 177.18V67.7H303.776V162.9H359.876V177.18H285.246Z" fill="#EBEBEB"/>
<path d="M535.639 178.88C517.619 178.88 503.962 173.95 494.669 164.09C485.489 154.23 480.899 140.913 480.899 124.14C480.899 112.127 482.826 101.813 486.679 93.2C490.646 84.4733 496.652 77.7867 504.699 73.14C512.746 68.38 523.002 66 535.469 66C541.816 66 547.595 66.51 552.809 67.53C558.135 68.4367 563.066 69.6833 567.599 71.27V87.42C563.066 85.6067 558.192 84.2467 552.979 83.34C547.879 82.32 542.495 81.81 536.829 81.81C523.229 81.81 513.595 85.4367 507.929 92.69C502.375 99.9433 499.599 110.427 499.599 124.14C499.599 136.947 502.659 146.693 508.779 153.38C514.899 159.953 524.362 163.24 537.169 163.24C542.382 163.24 547.595 162.843 552.809 162.05C558.135 161.143 563.122 159.783 567.769 157.97V174.29C563.236 175.763 558.306 176.897 552.979 177.69C547.766 178.483 541.986 178.88 535.639 178.88Z" fill="#EBEBEB"/>
<path d="M585.734 177.18V67.7H604.264V118.02L650.844 67.7H672.264L631.974 111.9L673.964 177.18H654.244L620.414 123.63L604.264 140.97V177.18H585.734Z" fill="#EBEBEB"/>
<path d="M691.984 177.18V67.7H766.444V82.15H710.514V115.3H760.154V129.58H710.514V177.18H691.984Z" fill="#EBEBEB"/>
<path d="M781.135 177.18V67.7H857.465V82.15H799.665V115.3H851.175V129.58H799.665V162.9H857.465V177.18H781.135Z" fill="#EBEBEB"/>
<path d="M866.885 177.18L905.985 122.61L867.735 67.7H889.155L917.035 108.33L944.915 67.7H966.505L928.085 122.61L967.185 177.18H945.425L917.035 137.06L888.645 177.18H866.885Z" fill="#EBEBEB"/>
<path fill-rule="evenodd" clip-rule="evenodd" d="M178 67.7V177.18H233.42C244.527 177.18 252.913 174.573 258.58 169.36C264.36 164.147 267.25 156.213 267.25 145.56C267.25 138.193 265.663 132.64 262.49 128.9C259.43 125.047 255.237 122.383 249.91 120.91C253.877 118.87 257.05 115.867 259.43 111.9C261.81 107.82 263 102.833 263 96.94C263 87.6467 260.393 80.45 255.18 75.35C249.967 70.25 241.92 67.7 231.04 67.7H178ZM228.49 114.45H213.29V128.05H227.64C235.573 128.05 241.013 129.467 243.96 132.3C247.02 135.02 248.55 139.213 248.55 144.88C248.55 151.793 247.02 156.667 243.96 159.5C240.9 162.22 236.083 163.58 229.51 163.58H196.53V128.05V114.45V81.64H226.45C233.93 81.64 239.03 83.0567 241.75 85.89C244.47 88.61 245.83 92.8033 245.83 98.47C245.83 103.343 244.47 107.253 241.75 110.2C239.143 113.033 234.723 114.45 228.49 114.45Z" fill="#EBEBEB"/>
<path d="M371.332 177.18L413.152 67.7H433.893L475.372 177.18H456.333L423.352 84.53L390.542 177.18H371.332Z" fill="#EBEBEB"/>
</svg>
